<svg width="22" height="18" viewBox="0 0 22 18" fill="none" xmlns="http://www.w3.org/2000/svg">
<g id="Email">
<path id="Vector" d="M20.9742 3.75098V13.7717C20.9742 14.4362 20.7103 15.0734 20.2405 15.5432C19.7706 16.013 19.1334 16.2769 18.469 16.2769H3.43787C2.77345 16.2769 2.13625 16.013 1.66643 15.5432C1.19662 15.0734 0.932678 14.4362 0.932678 13.7717V3.75098" stroke="#373737" stroke-width="1.68349" stroke-linecap="round" stroke-linejoin="round"/>
<path id="Vector_2" d="M20.9742 3.7508C20.9742 3.08638 20.7103 2.44917 20.2405 1.97936C19.7706 1.50954 19.1334 1.24561 18.469 1.24561H3.43787C2.77345 1.24561 2.13625 1.50954 1.66643 1.97936C1.19662 2.44917 0.932678 3.08638 0.932678 3.7508L9.6257 9.17871C10.0239 9.42756 10.4839 9.55951 10.9534 9.55951C11.423 9.55951 11.883 9.42756 12.2812 9.17871L20.9742 3.7508Z" stroke="#373737" stroke-width="1.68349" stroke-linecap="round" stroke-linejoin="round"/>
</g>
</svg>
