<svg width="234" height="51" viewBox="0 0 234 51" fill="none" xmlns="http://www.w3.org/2000/svg">
<path d="M4.60246 32.7925L0 50.0518L17.8345 45.4493V32.7925H4.60246Z" fill="url(#paint0_linear_24_1599)"/>
<path d="M26.4649 0L2.30194 24.1629H26.4649V0Z" fill="#23194A"/>
<path d="M27.6148 24.1629V0H51.7778V24.1629H27.6148Z" fill="#23194A"/>
<path d="M27.6148 49.4765V24.163H51.7778L27.6148 49.4765Z" fill="#A58FF7" fill-opacity="0.03"/>
<path d="M27.6148 49.4765V24.163H51.7778L27.6148 49.4765Z" fill="url(#paint1_radial_24_1599)"/>
<path d="M78.0447 31.7649C76.5189 31.7649 75.0519 31.5204 73.6435 31.0314C72.2547 30.5229 71.1789 29.8774 70.4161 29.0949L71.2669 27.4225C71.9907 28.1267 72.9589 28.7233 74.1717 29.2123C75.404 29.6817 76.695 29.9165 78.0447 29.9165C79.3356 29.9165 80.3821 29.76 81.1841 29.447C82.0057 29.1145 82.6023 28.6744 82.9739 28.1267C83.3651 27.579 83.5607 26.9726 83.5607 26.3076C83.5607 25.5056 83.326 24.8601 82.8565 24.3711C82.4066 23.8821 81.8101 23.5006 81.0668 23.2268C80.3235 22.9334 79.5019 22.6791 78.6021 22.4639C77.7023 22.2488 76.8026 22.0238 75.9028 21.7891C75.003 21.5348 74.1717 21.2023 73.4088 20.7915C72.6655 20.3807 72.0591 19.8428 71.5897 19.1778C71.1398 18.4931 70.9149 17.6031 70.9149 16.5078C70.9149 15.4906 71.1789 14.5615 71.7071 13.7204C72.2547 12.8597 73.0861 12.1751 74.201 11.6665C75.316 11.1384 76.7439 10.8743 78.4848 10.8743C79.6388 10.8743 80.7831 11.0406 81.9176 11.3731C83.0521 11.6861 84.0302 12.1262 84.8517 12.6935L84.1182 14.4246C83.238 13.8377 82.2991 13.4074 81.3015 13.1336C80.3235 12.8597 79.3748 12.7228 78.4554 12.7228C77.2231 12.7228 76.206 12.8891 75.404 13.2216C74.602 13.5541 74.0054 14.004 73.6142 14.5713C73.2426 15.119 73.0567 15.7449 73.0567 16.4491C73.0567 17.2511 73.2817 17.8966 73.7316 18.3856C74.201 18.8746 74.8074 19.256 75.5507 19.5299C76.3136 19.8037 77.1449 20.0482 78.0447 20.2634C78.9444 20.4785 79.8344 20.7133 80.7147 20.9675C81.6144 21.2218 82.436 21.5544 83.1793 21.9651C83.9421 22.3563 84.5485 22.8845 84.9984 23.5495C85.4679 24.2146 85.7026 25.085 85.7026 26.1609C85.7026 27.1584 85.4287 28.0876 84.881 28.9482C84.3334 29.7893 83.4923 30.4739 82.3577 31.0021C81.2428 31.5107 79.8051 31.7649 78.0447 31.7649ZM96.4775 31.7356C95.1474 31.7356 93.9444 31.4324 92.8686 30.826C91.7928 30.2001 90.9321 29.3101 90.2866 28.156C89.6607 26.9824 89.3477 25.5545 89.3477 23.8723C89.3477 22.1901 89.6607 20.7719 90.2866 19.6179C90.9126 18.4442 91.7634 17.5542 92.8393 16.9479C93.9151 16.3415 95.1278 16.0383 96.4775 16.0383C97.9446 16.0383 99.2551 16.3708 100.409 17.0359C101.583 17.6814 102.502 18.6007 103.167 19.7939C103.832 20.9675 104.165 22.327 104.165 23.8723C104.165 25.4371 103.832 26.8064 103.167 27.98C102.502 29.1536 101.583 30.073 100.409 30.738C99.2551 31.4031 97.9446 31.7356 96.4775 31.7356ZM88.5262 37.281V16.185H90.5213V20.8208L90.316 23.9016L90.6094 27.0117V37.281H88.5262ZM96.3308 29.8871C97.4262 29.8871 98.4042 29.6426 99.2649 29.1536C100.126 28.645 100.81 27.9409 101.319 27.0411C101.827 26.1217 102.082 25.0655 102.082 23.8723C102.082 22.6791 101.827 21.6326 101.319 20.7328C100.81 19.833 100.126 19.1289 99.2649 18.6203C98.4042 18.1117 97.4262 17.8574 96.3308 17.8574C95.2354 17.8574 94.2476 18.1117 93.3674 18.6203C92.5067 19.1289 91.8221 19.833 91.3135 20.7328C90.8245 21.6326 90.58 22.6791 90.58 23.8723C90.58 25.0655 90.8245 26.1217 91.3135 27.0411C91.8221 27.9409 92.5067 28.645 93.3674 29.1536C94.2476 29.6426 95.2354 29.8871 96.3308 29.8871ZM113.223 31.7356C111.737 31.7356 110.397 31.4031 109.204 30.738C108.03 30.0534 107.101 29.1243 106.416 27.9506C105.732 26.7575 105.389 25.398 105.389 23.8723C105.389 22.327 105.732 20.9675 106.416 19.7939C107.101 18.6203 108.03 17.7009 109.204 17.0359C110.377 16.3708 111.717 16.0383 113.223 16.0383C114.749 16.0383 116.099 16.3708 117.272 17.0359C118.465 17.7009 119.395 18.6203 120.06 19.7939C120.744 20.9675 121.087 22.327 121.087 23.8723C121.087 25.398 120.744 26.7575 120.06 27.9506C119.395 29.1243 118.465 30.0534 117.272 30.738C116.079 31.4031 114.729 31.7356 113.223 31.7356ZM113.223 29.8871C114.338 29.8871 115.326 29.6426 116.187 29.1536C117.047 28.645 117.722 27.9409 118.211 27.0411C118.72 26.1217 118.974 25.0655 118.974 23.8723C118.974 22.6595 118.72 21.6033 118.211 20.7035C117.722 19.8037 117.047 19.1093 116.187 18.6203C115.326 18.1117 114.348 17.8574 113.253 17.8574C112.157 17.8574 111.179 18.1117 110.319 18.6203C109.458 19.1093 108.773 19.8037 108.265 20.7035C107.756 21.6033 107.502 22.6595 107.502 23.8723C107.502 25.0655 107.756 26.1217 108.265 27.0411C108.773 27.9409 109.458 28.645 110.319 29.1536C111.179 29.6426 112.147 29.8871 113.223 29.8871ZM128.743 31.7356C127.296 31.7356 126.181 31.3444 125.398 30.562C124.616 29.7796 124.225 28.6744 124.225 27.2465V12.7815H126.308V27.1291C126.308 28.0289 126.533 28.7233 126.983 29.2123C127.452 29.7013 128.117 29.9458 128.978 29.9458C129.897 29.9458 130.66 29.6817 131.266 29.1536L132 30.65C131.589 31.0216 131.09 31.2955 130.504 31.4715C129.936 31.6476 129.35 31.7356 128.743 31.7356ZM121.467 17.9161V16.185H131.002V17.9161H121.467ZM140.324 31.7356C138.72 31.7356 137.312 31.4031 136.099 30.738C134.886 30.0534 133.937 29.1243 133.253 27.9506C132.568 26.7575 132.226 25.398 132.226 23.8723C132.226 22.3466 132.549 20.9969 133.194 19.8233C133.859 18.6496 134.759 17.7303 135.893 17.0652C137.047 16.3806 138.338 16.0383 139.766 16.0383C141.214 16.0383 142.495 16.3708 143.61 17.0359C144.744 17.6814 145.634 18.6007 146.28 19.7939C146.925 20.9675 147.248 22.327 147.248 23.8723C147.248 23.9701 147.238 24.0777 147.219 24.195C147.219 24.2928 147.219 24.4004 147.219 24.5178H133.81V22.9627H146.104L145.282 23.5789C145.282 22.4639 145.038 21.4761 144.549 20.6155C144.079 19.7352 143.434 19.0506 142.612 18.5616C141.791 18.0726 140.842 17.8281 139.766 17.8281C138.71 17.8281 137.761 18.0726 136.92 18.5616C136.079 19.0506 135.424 19.7352 134.954 20.6155C134.485 21.4957 134.25 22.503 134.25 23.6376V23.9603C134.25 25.1339 134.505 26.1706 135.013 27.0704C135.541 27.9506 136.265 28.645 137.184 29.1536C138.123 29.6426 139.189 29.8871 140.382 29.8871C141.321 29.8871 142.192 29.7209 142.994 29.3883C143.815 29.0558 144.52 28.5472 145.106 27.8626L146.28 29.2123C145.595 30.0338 144.735 30.6598 143.698 31.0901C142.681 31.5204 141.556 31.7356 140.324 31.7356ZM150.197 31.5889V11.0504H152.603L161.816 26.5716H160.525L169.621 11.0504H172.027L172.056 31.5889H169.24L169.21 15.4808H169.885L161.787 29.0949H160.437L152.281 15.4808H153.014V31.5889H150.197ZM183.267 31.7649C181.604 31.7649 180.137 31.4226 178.866 30.738C177.614 30.0534 176.636 29.1145 175.932 27.9213C175.247 26.7281 174.905 25.3589 174.905 23.8136C174.905 22.2683 175.237 20.8991 175.902 19.7059C176.587 18.5127 177.516 17.5836 178.69 16.9185C179.883 16.2339 181.223 15.8916 182.709 15.8916C184.215 15.8916 185.546 16.2241 186.7 16.8892C187.854 17.5542 188.753 18.4931 189.399 19.7059C190.064 20.8991 190.397 22.2977 190.397 23.9016C190.397 24.019 190.387 24.1559 190.367 24.3124C190.367 24.4689 190.357 24.6156 190.338 24.7525H177.105V22.728H188.871L187.727 23.4322C187.746 22.4346 187.541 21.5446 187.11 20.7622C186.68 19.9797 186.083 19.3734 185.321 18.943C184.577 18.4931 183.707 18.2682 182.709 18.2682C181.731 18.2682 180.861 18.4931 180.098 18.943C179.335 19.3734 178.738 19.9895 178.308 20.7915C177.878 21.5739 177.663 22.4737 177.663 23.4909V23.9603C177.663 24.997 177.897 25.9261 178.367 26.7477C178.856 27.5497 179.531 28.1756 180.391 28.6255C181.252 29.0754 182.24 29.3003 183.355 29.3003C184.274 29.3003 185.105 29.1438 185.849 28.8309C186.612 28.5179 187.277 28.0484 187.844 27.4225L189.399 29.2416C188.695 30.0632 187.815 30.6891 186.758 31.1194C185.722 31.5498 184.558 31.7649 183.267 31.7649ZM199.266 31.7649C197.76 31.7649 196.411 31.4324 195.217 30.7674C194.044 30.1023 193.115 29.1732 192.43 27.98C191.745 26.7868 191.403 25.398 191.403 23.8136C191.403 22.2292 191.745 20.8502 192.43 19.6766C193.115 18.4834 194.044 17.5542 195.217 16.8892C196.411 16.2241 197.76 15.8916 199.266 15.8916C200.577 15.8916 201.76 16.185 202.817 16.7718C203.873 17.3586 204.714 18.2389 205.34 19.4125C205.985 20.5861 206.308 22.0532 206.308 23.8136C206.308 25.574 205.995 27.0411 205.369 28.2147C204.763 29.3883 203.932 30.2783 202.875 30.8847C201.819 31.4715 200.616 31.7649 199.266 31.7649ZM199.501 29.3003C200.479 29.3003 201.359 29.0754 202.142 28.6255C202.944 28.1756 203.57 27.5399 204.02 26.7183C204.489 25.8772 204.724 24.909 204.724 23.8136C204.724 22.6987 204.489 21.7402 204.02 20.9382C203.57 20.1167 202.944 19.481 202.142 19.0311C201.359 18.5812 200.479 18.3562 199.501 18.3562C198.504 18.3562 197.614 18.5812 196.831 19.0311C196.049 19.481 195.423 20.1167 194.953 20.9382C194.484 21.7402 194.249 22.6987 194.249 23.8136C194.249 24.909 194.484 25.8772 194.953 26.7183C195.423 27.5399 196.049 28.1756 196.831 28.6255C197.614 29.0754 198.504 29.3003 199.501 29.3003ZM204.812 31.5889V27.3932L204.988 23.7843L204.694 20.1753V9.81807H207.511V31.5889H204.812ZM211.374 31.5889V16.0383H214.19V31.5889H211.374ZM212.782 13.0455C212.234 13.0455 211.775 12.8695 211.403 12.5174C211.051 12.1653 210.875 11.735 210.875 11.2264C210.875 10.6983 211.051 10.2582 211.403 9.90609C211.775 9.554 212.234 9.37796 212.782 9.37796C213.33 9.37796 213.78 9.554 214.132 9.90609C214.503 10.2386 214.689 10.6592 214.689 11.1677C214.689 11.6959 214.513 12.1458 214.161 12.5174C213.809 12.8695 213.349 13.0455 212.782 13.0455ZM227.754 31.5889V28.3027L227.608 27.6866V22.0825C227.608 20.8893 227.256 19.97 226.551 19.3245C225.867 18.6594 224.83 18.3269 223.441 18.3269C222.522 18.3269 221.622 18.4834 220.742 18.7963C219.862 19.0897 219.118 19.4907 218.512 19.9993L217.338 17.8868C218.14 17.2413 219.099 16.7523 220.214 16.4197C221.348 16.0676 222.532 15.8916 223.764 15.8916C225.896 15.8916 227.539 16.41 228.693 17.4467C229.847 18.4834 230.424 20.0678 230.424 22.1999V31.5889H227.754ZM222.649 31.7649C221.495 31.7649 220.478 31.5693 219.598 31.1781C218.737 30.7869 218.072 30.249 217.603 29.5644C217.133 28.8602 216.898 28.068 216.898 27.1878C216.898 26.3467 217.094 25.5838 217.485 24.8992C217.896 24.2146 218.551 23.6669 219.451 23.2561C220.37 22.8454 221.603 22.64 223.148 22.64H228.077V24.6645H223.265C221.857 24.6645 220.908 24.8992 220.419 25.3687C219.93 25.8381 219.686 26.4054 219.686 27.0704C219.686 27.8333 219.989 28.4494 220.595 28.9189C221.202 29.3688 222.043 29.5937 223.119 29.5937C224.175 29.5937 225.094 29.359 225.877 28.8895C226.679 28.4201 227.256 27.7355 227.608 26.8357L228.165 28.7722C227.794 29.6915 227.138 30.425 226.199 30.9727C225.26 31.5009 224.077 31.7649 222.649 31.7649Z" fill="#23194A"/>
<path d="M165.069 41.3815L166.808 37.5827H167.45L169.195 41.3815H168.54L167.022 37.9238H167.243L165.704 41.3815H165.069ZM165.865 40.4786L166.039 39.9636H168.125L168.299 40.4786H165.865ZM169.505 41.3815V37.5827H171.157C171.585 37.5827 171.955 37.6607 172.267 37.8168C172.583 37.9728 172.826 38.1935 172.996 38.4789C173.17 38.7642 173.257 39.0986 173.257 39.4821C173.257 39.8655 173.17 40.1999 172.996 40.4853C172.826 40.7706 172.583 40.9913 172.267 41.1474C171.955 41.3034 171.585 41.3815 171.157 41.3815H169.505ZM170.153 40.8397H171.13C171.442 40.8397 171.707 40.7862 171.926 40.6792C172.144 40.5678 172.311 40.4095 172.427 40.2044C172.543 39.9993 172.601 39.7585 172.601 39.4821C172.601 39.2012 172.543 38.9604 172.427 38.7598C172.311 38.5547 172.144 38.3964 171.926 38.2849C171.707 38.1735 171.442 38.1177 171.13 38.1177H170.153V40.8397ZM174.813 41.3815L173.127 37.5827H173.823L175.341 41.0604H174.946L176.491 37.5827H177.147L175.455 41.3815H174.813ZM178.058 39.1878H180.057V39.7162H178.058V39.1878ZM178.165 40.8397H180.365V41.3815H177.516V37.5827H180.291V38.1177H178.165V40.8397ZM180.996 41.3815V37.5827H182.547C182.882 37.5827 183.169 37.6362 183.41 37.7432C183.651 37.8458 183.838 37.9974 183.972 38.198C184.106 38.3942 184.172 38.6349 184.172 38.9203C184.172 39.1967 184.106 39.4353 183.972 39.6359C183.838 39.8366 183.651 39.9904 183.41 40.0974C183.169 40.1999 182.882 40.2512 182.547 40.2512H181.357L181.644 39.9569V41.3815H180.996ZM183.537 41.3815L182.547 40.0037H183.249L184.239 41.3815H183.537ZM181.644 40.0305L181.397 39.7229H182.507C182.837 39.7229 183.087 39.6537 183.256 39.5155C183.43 39.3773 183.517 39.1789 183.517 38.9203C183.517 38.6617 183.43 38.4633 183.256 38.3251C183.087 38.1869 182.837 38.1177 182.507 38.1177H181.397L181.644 37.8101V40.0305ZM185.484 41.3815V38.1177H184.187V37.5827H187.43V38.1177H186.133V41.3815H185.484ZM187.772 41.3815V37.5827H188.421V41.3815H187.772ZM192.033 40.298C192.033 40.5299 191.97 40.7305 191.846 40.8999C191.725 41.0694 191.549 41.2009 191.317 41.2945C191.09 41.3882 190.813 41.435 190.488 41.435C190.194 41.435 189.906 41.3948 189.625 41.3146C189.349 41.2299 189.133 41.1184 188.977 40.9802L189.231 40.4719C189.382 40.5923 189.572 40.6926 189.799 40.7729C190.027 40.8487 190.265 40.8866 190.515 40.8866C190.836 40.8866 191.061 40.8353 191.19 40.7327C191.32 40.6257 191.384 40.5009 191.384 40.3582C191.384 40.2334 191.342 40.1353 191.257 40.0639C191.177 39.9881 191.068 39.9302 190.929 39.8901C190.791 39.8455 190.64 39.8053 190.475 39.7697C190.314 39.734 190.151 39.6939 189.986 39.6493C189.826 39.6047 189.677 39.5445 189.538 39.4687C189.405 39.3929 189.295 39.2904 189.211 39.1611C189.126 39.0273 189.084 38.8601 189.084 38.6595C189.084 38.4321 189.146 38.2337 189.271 38.0642C189.396 37.8948 189.572 37.7633 189.799 37.6697C190.027 37.576 190.299 37.5292 190.615 37.5292C190.847 37.5292 191.077 37.556 191.304 37.6095C191.531 37.6585 191.727 37.741 191.892 37.8569L191.658 38.3786C191.498 38.2671 191.324 38.1891 191.137 38.1445C190.954 38.0999 190.773 38.0776 190.595 38.0776C190.292 38.0776 190.071 38.1311 189.933 38.2381C189.799 38.3407 189.732 38.4677 189.732 38.6193C189.732 38.7442 189.775 38.8445 189.859 38.9203C189.944 38.9916 190.053 39.0496 190.187 39.0942C190.325 39.1343 190.477 39.1722 190.642 39.2079C190.807 39.2436 190.97 39.2837 191.13 39.3283C191.291 39.3729 191.44 39.433 191.578 39.5088C191.716 39.5846 191.826 39.6872 191.906 39.8165C191.991 39.9413 192.033 40.1018 192.033 40.298ZM192.596 41.3815V37.5827H193.245V41.3815H192.596ZM194.202 41.3815V37.5827H194.737L197.178 40.5789H196.93V37.5827H197.579V41.3815H197.044L194.596 38.3853H194.85V41.3815H194.202ZM201.747 40.9468C201.622 41.0493 201.482 41.1385 201.326 41.2143C201.17 41.2856 201.003 41.3413 200.824 41.3815C200.646 41.4171 200.465 41.435 200.283 41.435C199.881 41.435 199.522 41.3503 199.206 41.1808C198.889 41.0114 198.64 40.7796 198.457 40.4853C198.278 40.1866 198.189 39.8522 198.189 39.4821C198.189 39.1031 198.278 38.7687 198.457 38.4789C198.64 38.1846 198.885 37.9528 199.192 37.7833C199.505 37.6139 199.859 37.5292 200.256 37.5292C200.586 37.5292 200.88 37.5782 201.139 37.6763C201.397 37.7744 201.613 37.9238 201.787 38.1244L201.373 38.5458C201.226 38.3897 201.058 38.276 200.871 38.2047C200.688 38.1289 200.488 38.091 200.269 38.091C199.997 38.091 199.752 38.1512 199.534 38.2716C199.32 38.3875 199.15 38.5502 199.025 38.7598C198.905 38.9693 198.845 39.2101 198.845 39.4821C198.845 39.7451 198.907 39.9837 199.032 40.1977C199.157 40.4073 199.328 40.5722 199.547 40.6926C199.765 40.813 200.013 40.8732 200.289 40.8732C200.503 40.8732 200.699 40.842 200.878 40.7796C201.056 40.7127 201.221 40.6101 201.373 40.4719L201.747 40.9468ZM201.119 40.9534V39.462H201.747V40.9468L201.119 40.9534ZM206.702 40.298C206.702 40.5299 206.64 40.7305 206.515 40.8999C206.394 41.0694 206.218 41.2009 205.986 41.2945C205.759 41.3882 205.483 41.435 205.157 41.435C204.863 41.435 204.575 41.3948 204.294 41.3146C204.018 41.2299 203.802 41.1184 203.646 40.9802L203.9 40.4719C204.051 40.5923 204.241 40.6926 204.468 40.7729C204.696 40.8487 204.934 40.8866 205.184 40.8866C205.505 40.8866 205.73 40.8353 205.859 40.7327C205.989 40.6257 206.053 40.5009 206.053 40.3582C206.053 40.2334 206.011 40.1353 205.926 40.0639C205.846 39.9881 205.737 39.9302 205.599 39.8901C205.46 39.8455 205.309 39.8053 205.144 39.7697C204.983 39.734 204.82 39.6939 204.656 39.6493C204.495 39.6047 204.346 39.5445 204.207 39.4687C204.074 39.3929 203.964 39.2904 203.88 39.1611C203.795 39.0273 203.753 38.8601 203.753 38.6595C203.753 38.4321 203.815 38.2337 203.94 38.0642C204.065 37.8948 204.241 37.7633 204.468 37.6697C204.696 37.576 204.968 37.5292 205.284 37.5292C205.516 37.5292 205.746 37.556 205.973 37.6095C206.2 37.6585 206.397 37.741 206.562 37.8569L206.327 38.3786C206.167 38.2671 205.993 38.1891 205.806 38.1445C205.623 38.0999 205.442 38.0776 205.264 38.0776C204.961 38.0776 204.74 38.1311 204.602 38.2381C204.468 38.3407 204.401 38.4677 204.401 38.6193C204.401 38.7442 204.444 38.8445 204.528 38.9203C204.613 38.9916 204.722 39.0496 204.856 39.0942C204.994 39.1343 205.146 39.1722 205.311 39.2079C205.476 39.2436 205.639 39.2837 205.799 39.3283C205.96 39.3729 206.109 39.433 206.247 39.5088C206.385 39.5846 206.495 39.6872 206.575 39.8165C206.66 39.9413 206.702 40.1018 206.702 40.298ZM208.978 41.435C208.585 41.435 208.233 41.3503 207.921 41.1808C207.609 41.0114 207.361 40.7796 207.179 40.4853C207 40.1866 206.911 39.8499 206.911 39.4754C206.911 39.1053 207 38.7732 207.179 38.4789C207.361 38.1846 207.609 37.9528 207.921 37.7833C208.233 37.6139 208.585 37.5292 208.978 37.5292C209.374 37.5292 209.727 37.6139 210.034 37.7833C210.346 37.9528 210.592 38.1846 210.77 38.4789C210.953 38.7732 211.044 39.1053 211.044 39.4754C211.044 39.8499 210.953 40.1866 210.77 40.4853C210.592 40.7796 210.346 41.0114 210.034 41.1808C209.727 41.3503 209.374 41.435 208.978 41.435ZM208.978 40.8732C209.25 40.8732 209.49 40.813 209.7 40.6926C209.914 40.5722 210.081 40.4073 210.201 40.1977C210.326 39.9837 210.389 39.7451 210.389 39.4821C210.389 39.2101 210.326 38.9716 210.201 38.7665C210.081 38.5569 209.914 38.392 209.7 38.2716C209.49 38.1512 209.25 38.091 208.978 38.091C208.71 38.091 208.469 38.1512 208.255 38.2716C208.041 38.3875 207.872 38.5502 207.747 38.7598C207.627 38.9693 207.566 39.2101 207.566 39.4821C207.566 39.7451 207.627 39.9837 207.747 40.1977C207.872 40.4073 208.041 40.5722 208.255 40.6926C208.469 40.813 208.71 40.8732 208.978 40.8732ZM211.653 41.3815V37.5827H212.302V40.8397H214.342V41.3815H211.653ZM216.255 41.435C215.907 41.435 215.609 41.3703 215.359 41.241C215.109 41.1073 214.918 40.9155 214.784 40.6659C214.655 40.4117 214.59 40.1085 214.59 39.7563V37.5827H215.239V39.7429C215.239 40.113 215.326 40.3939 215.5 40.5856C215.678 40.7773 215.932 40.8732 216.262 40.8732C216.592 40.8732 216.844 40.7796 217.018 40.5923C217.196 40.4006 217.285 40.1174 217.285 39.7429V37.5827H217.921V39.7563C217.921 40.1085 217.854 40.4117 217.72 40.6659C217.591 40.9155 217.401 41.1073 217.151 41.241C216.902 41.3703 216.603 41.435 216.255 41.435ZM219.517 41.3815V38.1177H218.219V37.5827H221.463V38.1177H220.166V41.3815H219.517ZM221.805 41.3815V37.5827H222.454V41.3815H221.805ZM225.123 41.435C224.73 41.435 224.378 41.3503 224.066 41.1808C223.754 41.0114 223.507 40.7796 223.324 40.4853C223.145 40.1866 223.056 39.8499 223.056 39.4754C223.056 39.1053 223.145 38.7732 223.324 38.4789C223.507 38.1846 223.754 37.9528 224.066 37.7833C224.378 37.6139 224.73 37.5292 225.123 37.5292C225.52 37.5292 225.872 37.6139 226.179 37.7833C226.492 37.9528 226.737 38.1846 226.915 38.4789C227.098 38.7732 227.189 39.1053 227.189 39.4754C227.189 39.8499 227.098 40.1866 226.915 40.4853C226.737 40.7796 226.492 41.0114 226.179 41.1808C225.872 41.3503 225.52 41.435 225.123 41.435ZM225.123 40.8732C225.395 40.8732 225.636 40.813 225.845 40.6926C226.059 40.5722 226.226 40.4073 226.347 40.1977C226.471 39.9837 226.534 39.7451 226.534 39.4821C226.534 39.2101 226.471 38.9716 226.347 38.7665C226.226 38.5569 226.059 38.392 225.845 38.2716C225.636 38.1512 225.395 38.091 225.123 38.091C224.855 38.091 224.614 38.1512 224.4 38.2716C224.186 38.3875 224.017 38.5502 223.892 38.7598C223.772 38.9693 223.712 39.2101 223.712 39.4821C223.712 39.7451 223.772 39.9837 223.892 40.1977C224.017 40.4073 224.186 40.5722 224.4 40.6926C224.614 40.813 224.855 40.8732 225.123 40.8732ZM227.798 41.3815V37.5827H228.333L230.774 40.5789H230.527V37.5827H231.176V41.3815H230.641L228.193 38.3853H228.447V41.3815H227.798Z" fill="#B0B0B0"/>
<defs>
<linearGradient id="paint0_linear_24_1599" x1="17.8949" y1="32.7044" x2="3.85665" y2="47.6682" gradientUnits="userSpaceOnUse">
<stop stop-color="#E88021"/>
<stop offset="1" stop-color="#FFB800"/>
</linearGradient>
<radialGradient id="paint1_radial_24_1599" cx="0" cy="0" r="1" gradientUnits="userSpaceOnUse" gradientTransform="translate(48.9012 28.1902) rotate(138.814) scale(24.4624 46.8854)">
<stop stop-color="#A58FF7"/>
<stop offset="1" stop-color="#A590F7" stop-opacity="0"/>
</radialGradient>
</defs>
</svg>
