<svg width="20" height="23" viewBox="0 0 20 23" fill="none" xmlns="http://www.w3.org/2000/svg">
<g id="Mark">
<path id="Vector" d="M18.2033 10.231C18.2033 16.699 11.5785 20.6837 10.2018 21.4427C10.1255 21.4848 10.0398 21.5069 9.95274 21.5069C9.86564 21.5069 9.77996 21.4848 9.7037 21.4427C8.32594 20.6837 1.70325 16.699 1.70325 10.231C1.70325 5.07471 4.797 1.46533 9.95326 1.46533C15.1095 1.46533 18.2033 5.07471 18.2033 10.231Z" stroke="#373737" stroke-width="1.68349" stroke-linecap="round" stroke-linejoin="round"/>
<path id="Vector_2" d="M5.82831 9.71583C5.82831 10.8098 6.26291 11.8591 7.03649 12.6326C7.81008 13.4062 8.85929 13.8408 9.95331 13.8408C11.0473 13.8408 12.0965 13.4062 12.8701 12.6326C13.6437 11.8591 14.0783 10.8098 14.0783 9.71583C14.0783 8.62181 13.6437 7.57259 12.8701 6.79901C12.0965 6.02542 11.0473 5.59082 9.95331 5.59082C8.85929 5.59082 7.81008 6.02542 7.03649 6.79901C6.26291 7.57259 5.82831 8.62181 5.82831 9.71583V9.71583Z" stroke="#373737" stroke-width="1.68349" stroke-linecap="round" stroke-linejoin="round"/>
</g>
</svg>
