<svg width="48" height="48" viewBox="0 0 48 48" fill="none" xmlns="http://www.w3.org/2000/svg">
<path d="M33.92 12.3401C37.92 15.1201 40.68 19.5401 41.24 24.6401" stroke="#292D32" stroke-width="1.5" stroke-linecap="round" stroke-linejoin="round"/>
<path d="M6.98001 24.7399C7.50001 19.6599 10.22 15.2399 14.18 12.4399" stroke="#292D32" stroke-width="1.5" stroke-linecap="round" stroke-linejoin="round"/>
<path d="M16.38 41.8799C18.7 43.0599 21.34 43.7199 24.12 43.7199C26.8 43.7199 29.32 43.1199 31.58 42.0199" stroke="#292D32" stroke-width="1.5" stroke-linecap="round" stroke-linejoin="round"/>
<path d="M24.12 15.4C27.1907 15.4 29.68 12.9107 29.68 9.84003C29.68 6.76933 27.1907 4.28003 24.12 4.28003C21.0493 4.28003 18.56 6.76933 18.56 9.84003C18.56 12.9107 21.0493 15.4 24.12 15.4Z" stroke="#292D32" stroke-width="1.5" stroke-linecap="round" stroke-linejoin="round"/>
<path d="M9.66001 39.84C12.7307 39.84 15.22 37.3507 15.22 34.28C15.22 31.2093 12.7307 28.72 9.66001 28.72C6.5893 28.72 4.10001 31.2093 4.10001 34.28C4.10001 37.3507 6.5893 39.84 9.66001 39.84Z" stroke="#292D32" stroke-width="1.5" stroke-linecap="round" stroke-linejoin="round"/>
<path d="M38.34 39.84C41.4107 39.84 43.9 37.3507 43.9 34.28C43.9 31.2093 41.4107 28.72 38.34 28.72C35.2693 28.72 32.78 31.2093 32.78 34.28C32.78 37.3507 35.2693 39.84 38.34 39.84Z" stroke="#292D32" stroke-width="1.5" stroke-linecap="round" stroke-linejoin="round"/>
</svg>
